<?xml version="1.0" encoding="UTF-8" standalone="no"?>
<svg
   xmlns:dc="http://purl.org/dc/elements/1.1/"
   xmlns:cc="http://creativecommons.org/ns#"
   xmlns:rdf="http://www.w3.org/1999/02/22-rdf-syntax-ns#"
   xmlns:svg="http://www.w3.org/2000/svg"
   xmlns="http://www.w3.org/2000/svg"
   viewBox="0 0 1066.6667 800"
   height="800"
   width="1066.6667"
   xml:space="preserve"
   id="svg2"
   version="1.1"><metadata
     id="metadata8"><rdf:RDF><cc:Work
         rdf:about=""><dc:format>image/svg+xml</dc:format><dc:type
           rdf:resource="http://purl.org/dc/dcmitype/StillImage" /></cc:Work></rdf:RDF></metadata><defs
     id="defs6" /><g
     transform="matrix(1.3333333,0,0,-1.3333333,0,800)"
     id="g10"><g
       transform="scale(1,-1)"
       id="g12"><path
         id="path14"
         style="fill:#62a230;fill-opacity:1;fill-rule:nonzero;stroke:none"
         d="m 168.19385,-260.9873 c 0,0 0,0 0,0 0,0 2.30371,2.87988 2.30371,2.87988 0,0 2.87988,2.30371 2.87988,2.30371 0,0 2.8794,2.30469 2.8794,2.30469 0,0 3.45605,1.72754 3.45605,1.72754 0,0 0,0 0,0 0,0 4.03174,1.15136 4.03174,1.15136 0,0 4.60742,1.15235 4.60742,1.15235 0,0 4.60791,0.57617 4.60791,0.57617 0,0 5.75928,0 5.75928,0 0,0 0,0 0,0 0,0 4.03174,0 4.03174,0 0,0 4.60742,-0.57617 4.60742,-0.57617 0,0 4.03174,-1.15235 4.03174,-1.15235 0,0 3.45605,-1.15136 3.45605,-1.15136 0,0 0,0 0,0 0,0 4.03174,-1.72754 4.03174,-1.72754 0,0 2.87939,-2.30469 2.87939,-2.30469 0,0 2.87989,-2.30371 2.87989,-2.30371 0,0 2.30371,-2.30371 2.30371,-2.30371 0,0 0,0 0,0 0,0 1.72803,-2.87989 1.72803,-2.87989 0,0 1.72802,-2.87988 1.72802,-2.87988 0,0 1.15186,-2.87988 1.15186,-2.87988 0,0 0,-3.45508 0,-3.45508 0,0 0,0 0,0 0,0 0.57568,-2.87988 0.57568,-2.87988 0,0 -0.57568,-2.87989 -0.57568,-2.87989 0,0 -1.15186,-2.87988 -1.15186,-2.87988 0,0 -1.15185,-2.30371 -1.15185,-2.30371 0,0 0,0 0,0 0,0 -1.72803,-2.30371 -1.72803,-2.30371 0,0 -2.30371,-2.30371 -2.30371,-2.30371 0,0 -2.87988,-1.72852 -2.87988,-1.72852 0,0 -2.87989,-1.72754 -2.87989,-1.72754 0,0 0,0 0,0 0,0 -6.91162,-2.30371 -6.91162,-2.30371 0,0 -11.51904,-2.87988 -11.51904,-2.87988 0,0 0,0 0,0 0,0 -10.36719,-2.87988 -10.36719,-2.87988 0,0 -3.45556,-1.15186 -3.45556,-1.15186 0,0 -2.30372,-1.15185 -2.30372,-1.15185 0,0 0,0 0,0 0,0 -1.15185,-1.72754 -1.15185,-1.72754 0,0 -1.15186,-1.72803 -1.15186,-1.72803 0,0 -0.57617,-1.72803 -0.57617,-1.72803 0,0 0,-2.30371 0,-2.30371 0,0 0,0 0,0 0,0 0.57617,-2.30371 0.57617,-2.30371 0,0 1.15186,-1.72803 1.15186,-1.72803 0,0 1.72754,-2.30371 1.72754,-2.30371 0,0 2.3042,-1.72802 2.3042,-1.72802 0,0 0,0 0,0 0,0 2.87939,-1.72754 2.87939,-1.72754 0,0 3.45606,-1.15235 3.45606,-1.15235 0,0 4.03173,-0.57568 4.03173,-0.57568 0,0 4.60743,0 4.60743,0 0,0 0,0 0,0 0,0 4.60742,0 4.60742,0 0,0 3.45605,1.15185 3.45605,1.15185 0,0 3.45557,1.15186 3.45557,1.15186 0,0 2.87988,1.72803 2.87988,1.72803 0,0 0,0 0,0 0,0 1.72803,1.72754 1.72803,1.72754 0,0 1.72754,2.87988 1.72754,2.87988 0,0 0.57617,2.87988 0.57617,2.87988 0,0 0.57568,3.45557 0.57568,3.45557 0,0 10.36719,-0.57568 10.36719,-0.57568 0,0 0,0 0,0 0,0 0,-3.45606 0,-3.45606 0,0 -0.57568,-3.45557 -0.57568,-3.45557 0,0 -0.57617,-2.87988 -0.57617,-2.87988 0,0 -1.72754,-2.87939 -1.72754,-2.87939 0,0 0,0 0,0 0,0 -1.72803,-2.3042 -1.72803,-2.3042 0,0 -2.30371,-2.30371 -2.30371,-2.30371 0,0 -2.87988,-2.30371 -2.87988,-2.30371 0,0 -2.87989,-1.15186 -2.87989,-1.15186 0,0 0,0 0,0 0,0 -4.03173,-1.72803 -4.03173,-1.72803 0,0 -3.45557,-0.57568 -3.45557,-0.57568 0,0 -4.60791,-0.57617 -4.60791,-0.57617 0,0 -4.60742,0 -4.60742,0 0,0 0,0 0,0 0,0 -4.03174,0 -4.03174,0 0,0 -4.03174,0.57617 -4.03174,0.57617 0,0 -3.45557,0.57568 -3.45557,0.57568 0,0 -4.03173,1.15186 -4.03173,1.15186 0,0 0,0 0,0 0,0 -3.45557,1.72803 -3.45557,1.72803 0,0 -2.87988,1.72802 -2.87988,1.72802 0,0 -2.87989,2.30371 -2.87989,2.30371 0,0 -1.72802,2.30371 -1.72802,2.30371 0,0 0,0 0,0 0,0 -2.30371,2.87989 -2.30371,2.87989 0,0 -1.15186,2.30371 -1.15186,2.30371 0,0 -1.15186,2.87988 -1.15186,2.87988 0,0 0,2.87988 0,2.87988 0,0 0,0 0,0 0,0 -0.57617,2.8794 -0.57617,2.8794 0,0 0.57617,2.3042 0.57617,2.3042 0,0 0.57569,2.87939 0.57569,2.87939 0,0 1.15234,2.3042 1.15234,2.3042 0,0 0,0 0,0 0,0 1.72754,1.72754 1.72754,1.72754 0,0 1.72803,2.30371 1.72803,2.30371 0,0 2.30371,1.72852 2.30371,1.72852 0,0 2.87988,1.15136 2.87988,1.15136 0,0 0,0 0,0 0,0 5.75977,2.30372 5.75977,2.30372 0,0 9.79101,2.87988 9.79101,2.87988 0,0 0,0 0,0 0,0 9.21533,2.30371 9.21533,2.30371 0,0 5.1836,1.15234 5.1836,1.15234 0,0 0,0 0,0 0,0 4.60742,2.30371 4.60742,2.30371 0,0 2.87988,2.87989 2.87988,2.87989 0,0 0,0 0,0 0,0 1.15186,2.87988 1.15186,2.87988 0,0 0.57617,3.45508 0.57617,3.45508 0,0 0,0 0,0 0,0 -1.15185,3.45605 -1.15185,3.45605 0,0 -2.3042,2.87989 -2.3042,2.87989 0,0 0,0 0,0 0,0 -2.8794,2.87988 -2.8794,2.87988 0,0 -4.60791,2.30371 -4.60791,2.30371 0,0 0,0 0,0 0,0 -5.18359,1.15234 -5.18359,1.15234 0,0 -6.33545,0.5752 -6.33545,0.5752 0,0 0,0 0,0 0,0 -6.33545,-0.5752 -6.33545,-0.5752 0,0 -6.33545,-1.72851 -6.33545,-1.72851 0,0 0,0 0,0 0,0 -2.30371,-1.15137 -2.30371,-1.15137 0,0 -2.3042,-1.72852 -2.3042,-1.72852 0,0 -1.72754,-1.72753 -1.72754,-1.72753 0,0 -1.15185,-1.72754 -1.15185,-1.72754 0,0 0,0 0,0 0,0 -1.15186,-1.72852 -1.15186,-1.72852 0,0 -1.15234,-2.30371 -1.15234,-2.30371 0,0 -0.57569,-5.75977 -0.57569,-5.75977 0,0 -10.36719,1.15235 -10.36719,1.15235 0,0 0,0 0,0 0,0 0,4.03125 0,4.03125 0,0 0.57569,3.45605 0.57569,3.45605 0,0 1.15185,3.45606 1.15185,3.45606 0,0 1.15235,3.45508 1.15235,3.45508 0,0 0,0 0,0 0,0 0,0 0,0 z" /><path
         id="path16"
         style="fill:none;stroke:#62a230;stroke-width:1;stroke-linecap:square;stroke-linejoin:miter;stroke-miterlimit:10;stroke-dasharray:none;stroke-opacity:1"
         d="m 168.19385,-260.9873 c 0,0 0,0 0,0 0,0 2.30371,2.87988 2.30371,2.87988 0,0 2.87988,2.30371 2.87988,2.30371 0,0 2.8794,2.30469 2.8794,2.30469 0,0 3.45605,1.72754 3.45605,1.72754 0,0 0,0 0,0 0,0 4.03174,1.15136 4.03174,1.15136 0,0 4.60742,1.15235 4.60742,1.15235 0,0 4.60791,0.57617 4.60791,0.57617 0,0 5.75928,0 5.75928,0 0,0 0,0 0,0 0,0 4.03174,0 4.03174,0 0,0 4.60742,-0.57617 4.60742,-0.57617 0,0 4.03174,-1.15235 4.03174,-1.15235 0,0 3.45605,-1.15136 3.45605,-1.15136 0,0 0,0 0,0 0,0 4.03174,-1.72754 4.03174,-1.72754 0,0 2.87939,-2.30469 2.87939,-2.30469 0,0 2.87989,-2.30371 2.87989,-2.30371 0,0 2.30371,-2.30371 2.30371,-2.30371 0,0 0,0 0,0 0,0 1.72803,-2.87989 1.72803,-2.87989 0,0 1.72802,-2.87988 1.72802,-2.87988 0,0 1.15186,-2.87988 1.15186,-2.87988 0,0 0,-3.45508 0,-3.45508 0,0 0,0 0,0 0,0 0.57568,-2.87988 0.57568,-2.87988 0,0 -0.57568,-2.87989 -0.57568,-2.87989 0,0 -1.15186,-2.87988 -1.15186,-2.87988 0,0 -1.15185,-2.30371 -1.15185,-2.30371 0,0 0,0 0,0 0,0 -1.72803,-2.30371 -1.72803,-2.30371 0,0 -2.30371,-2.30371 -2.30371,-2.30371 0,0 -2.87988,-1.72852 -2.87988,-1.72852 0,0 -2.87989,-1.72754 -2.87989,-1.72754 0,0 0,0 0,0 0,0 -6.91162,-2.30371 -6.91162,-2.30371 0,0 -11.51904,-2.87988 -11.51904,-2.87988 0,0 0,0 0,0 0,0 -10.36719,-2.87988 -10.36719,-2.87988 0,0 -3.45556,-1.15186 -3.45556,-1.15186 0,0 -2.30372,-1.15185 -2.30372,-1.15185 0,0 0,0 0,0 0,0 -1.15185,-1.72754 -1.15185,-1.72754 0,0 -1.15186,-1.72803 -1.15186,-1.72803 0,0 -0.57617,-1.72803 -0.57617,-1.72803 0,0 0,-2.30371 0,-2.30371 0,0 0,0 0,0 0,0 0.57617,-2.30371 0.57617,-2.30371 0,0 1.15186,-1.72803 1.15186,-1.72803 0,0 1.72754,-2.30371 1.72754,-2.30371 0,0 2.3042,-1.72802 2.3042,-1.72802 0,0 0,0 0,0 0,0 2.87939,-1.72754 2.87939,-1.72754 0,0 3.45606,-1.15235 3.45606,-1.15235 0,0 4.03173,-0.57568 4.03173,-0.57568 0,0 4.60743,0 4.60743,0 0,0 0,0 0,0 0,0 4.60742,0 4.60742,0 0,0 3.45605,1.15185 3.45605,1.15185 0,0 3.45557,1.15186 3.45557,1.15186 0,0 2.87988,1.72803 2.87988,1.72803 0,0 0,0 0,0 0,0 1.72803,1.72754 1.72803,1.72754 0,0 1.72754,2.87988 1.72754,2.87988 0,0 0.57617,2.87988 0.57617,2.87988 0,0 0.57568,3.45557 0.57568,3.45557 0,0 10.36719,-0.57568 10.36719,-0.57568 0,0 0,0 0,0 0,0 0,-3.45606 0,-3.45606 0,0 -0.57568,-3.45557 -0.57568,-3.45557 0,0 -0.57617,-2.87988 -0.57617,-2.87988 0,0 -1.72754,-2.87939 -1.72754,-2.87939 0,0 0,0 0,0 0,0 -1.72803,-2.3042 -1.72803,-2.3042 0,0 -2.30371,-2.30371 -2.30371,-2.30371 0,0 -2.87988,-2.30371 -2.87988,-2.30371 0,0 -2.87989,-1.15186 -2.87989,-1.15186 0,0 0,0 0,0 0,0 -4.03173,-1.72803 -4.03173,-1.72803 0,0 -3.45557,-0.57568 -3.45557,-0.57568 0,0 -4.60791,-0.57617 -4.60791,-0.57617 0,0 -4.60742,0 -4.60742,0 0,0 0,0 0,0 0,0 -4.03174,0 -4.03174,0 0,0 -4.03174,0.57617 -4.03174,0.57617 0,0 -3.45557,0.57568 -3.45557,0.57568 0,0 -4.03173,1.15186 -4.03173,1.15186 0,0 0,0 0,0 0,0 -3.45557,1.72803 -3.45557,1.72803 0,0 -2.87988,1.72802 -2.87988,1.72802 0,0 -2.87989,2.30371 -2.87989,2.30371 0,0 -1.72802,2.30371 -1.72802,2.30371 0,0 0,0 0,0 0,0 -2.30371,2.87989 -2.30371,2.87989 0,0 -1.15186,2.30371 -1.15186,2.30371 0,0 -1.15186,2.87988 -1.15186,2.87988 0,0 0,2.87988 0,2.87988 0,0 0,0 0,0 0,0 -0.57617,2.8794 -0.57617,2.8794 0,0 0.57617,2.3042 0.57617,2.3042 0,0 0.57569,2.87939 0.57569,2.87939 0,0 1.15234,2.3042 1.15234,2.3042 0,0 0,0 0,0 0,0 1.72754,1.72754 1.72754,1.72754 0,0 1.72803,2.30371 1.72803,2.30371 0,0 2.30371,1.72852 2.30371,1.72852 0,0 2.87988,1.15136 2.87988,1.15136 0,0 0,0 0,0 0,0 5.75977,2.30372 5.75977,2.30372 0,0 9.79101,2.87988 9.79101,2.87988 0,0 0,0 0,0 0,0 9.21533,2.30371 9.21533,2.30371 0,0 5.1836,1.15234 5.1836,1.15234 0,0 0,0 0,0 0,0 4.60742,2.30371 4.60742,2.30371 0,0 2.87988,2.87989 2.87988,2.87989 0,0 0,0 0,0 0,0 1.15186,2.87988 1.15186,2.87988 0,0 0.57617,3.45508 0.57617,3.45508 0,0 0,0 0,0 0,0 -1.15185,3.45605 -1.15185,3.45605 0,0 -2.3042,2.87989 -2.3042,2.87989 0,0 0,0 0,0 0,0 -2.8794,2.87988 -2.8794,2.87988 0,0 -4.60791,2.30371 -4.60791,2.30371 0,0 0,0 0,0 0,0 -5.18359,1.15234 -5.18359,1.15234 0,0 -6.33545,0.5752 -6.33545,0.5752 0,0 0,0 0,0 0,0 -6.33545,-0.5752 -6.33545,-0.5752 0,0 -6.33545,-1.72851 -6.33545,-1.72851 0,0 0,0 0,0 0,0 -2.30371,-1.15137 -2.30371,-1.15137 0,0 -2.3042,-1.72852 -2.3042,-1.72852 0,0 -1.72754,-1.72753 -1.72754,-1.72753 0,0 -1.15185,-1.72754 -1.15185,-1.72754 0,0 0,0 0,0 0,0 -1.15186,-1.72852 -1.15186,-1.72852 0,0 -1.15234,-2.30371 -1.15234,-2.30371 0,0 -0.57569,-5.75977 -0.57569,-5.75977 0,0 -10.36719,1.15235 -10.36719,1.15235 0,0 0,0 0,0 0,0 0,4.03125 0,4.03125 0,0 0.57569,3.45605 0.57569,3.45605 0,0 1.15185,3.45606 1.15185,3.45606 0,0 1.15235,3.45508 1.15235,3.45508 0,0 0,0 0,0 0,0 0,0 0,0 z" /><path
         id="path18"
         style="fill:#62a230;fill-opacity:1;fill-rule:nonzero;stroke:none"
         d="m 285.68848,-275.38574 c 0,0 0,0 0,0 0,0 -1.15186,5.75976 -1.15186,5.75976 0,0 -1.72803,4.03125 -1.72803,4.03125 0,0 0,0 0,0 0,0 -1.15185,2.30371 -1.15185,2.30371 0,0 -1.72754,1.72852 -1.72754,1.72852 0,0 -2.3042,1.15137 -2.3042,1.15137 0,0 -2.30371,1.72851 -2.30371,1.72851 0,0 0,0 0,0 0,0 -5.18359,1.72754 -5.18359,1.72754 0,0 -5.75928,0.57617 -5.75928,0.57617 0,0 0,0 0,0 0,0 -2.87988,0 -2.87988,0 0,0 -2.30372,-0.57617 -2.30372,-0.57617 0,0 -2.30419,-1.15234 -2.30419,-1.15234 0,0 -1.15186,-1.15137 -1.15186,-1.15137 0,0 0,0 0,0 0,0 -1.72754,-1.15234 -1.72754,-1.15234 0,0 -0.57617,-1.72754 -0.57617,-1.72754 0,0 -0.57568,-1.15235 -0.57568,-1.15235 0,0 0,-2.30371 0,-2.30371 0,0 0,0 0,0 0,0 0.57568,-2.30371 0.57568,-2.30371 0,0 1.15185,-2.30371 1.15185,-2.30371 0,0 0,0 0,0 0,0 2.30372,-1.72754 2.30372,-1.72754 0,0 2.30419,-1.15234 2.30419,-1.15234 0,0 0,0 0,0 0,0 3.45557,-1.15235 3.45557,-1.15235 0,0 5.75977,-0.57519 5.75977,-0.57519 0,0 0,0 0,0 0,0 9.79101,-1.72852 9.79101,-1.72852 0,0 7.48731,-2.30371 7.48731,-2.30371 0,0 0,3.45606 0,3.45606 0,0 0,0 0,0 0,0 0,0 0,0 z m 0,25.34179 c 0,0 10.94336,0 10.94336,0 0,0 0,0 0,0 0,0 -1.15186,-3.45507 -1.15186,-3.45507 0,0 -0.57617,-3.45606 -0.57617,-3.45606 0,0 0,0 0,0 0,0 0,-6.33594 0,-6.33594 0,0 0.57617,-10.94336 0.57617,-10.94336 0,0 1.15186,-12.67089 1.15186,-12.67089 0,0 0,0 0,0 0,0 0.57568,-5.75879 0.57568,-5.75879 0,0 0,-3.45606 0,-3.45606 0,0 0,0 0,0 0,0 -1.15186,-3.45605 -1.15186,-3.45605 0,0 -1.72753,-2.8794 -1.72753,-2.8794 0,0 0,0 0,0 0,0 -2.3042,-2.3042 -2.3042,-2.3042 0,0 -4.03174,-2.30371 -4.03174,-2.30371 0,0 0,0 0,0 0,0 -5.75928,-1.15185 -5.75928,-1.15185 0,0 -6.91162,-0.57569 -6.91162,-0.57569 0,0 0,0 0,0 0,0 -7.48731,0.57569 -7.48731,0.57569 0,0 -6.91162,1.72803 -6.91162,1.72803 0,0 0,0 0,0 0,0 -5.18359,2.30371 -5.18359,2.30371 0,0 -2.30371,1.72802 -2.30371,1.72802 0,0 -2.30371,1.72754 -2.30371,1.72754 0,0 0,0 0,0 0,0 -2.87989,4.03174 -2.87989,4.03174 0,0 -2.30371,5.75977 -2.30371,5.75977 0,0 9.79102,1.15136 9.79102,1.15136 0,0 0,0 0,0 0,0 1.15186,-2.8789 1.15186,-2.8789 0,0 1.72802,-2.30469 1.72802,-2.30469 0,0 1.72803,-1.72754 1.72803,-1.72754 0,0 1.72754,-1.15137 1.72754,-1.15137 0,0 0,0 0,0 0,0 1.72803,-1.15234 1.72803,-1.15234 0,0 2.87988,-1.15186 2.87988,-1.15186 0,0 6.33545,-0.57617 6.33545,-0.57617 0,0 0,0 0,0 0,0 3.45556,0.57617 3.45556,0.57617 0,0 3.45606,0.57569 3.45606,0.57569 0,0 2.30371,1.15234 2.30371,1.15234 0,0 2.30371,1.15137 2.30371,1.15137 0,0 0,0 0,0 0,0 1.15186,1.72851 1.15186,1.72851 0,0 0.57617,1.72754 0.57617,1.72754 0,0 0.57568,2.30371 0.57568,2.30371 0,0 0,2.87989 0,2.87989 0,0 0,0 0,0 0,0 -0.57568,2.30371 -0.57568,2.30371 0,0 0,0 0,0 0,0 -7.48731,1.72754 -7.48731,1.72754 0,0 -10.94336,1.72851 -10.94336,1.72851 0,0 0,0 0,0 0,0 -9.79101,1.15137 -9.79101,1.15137 0,0 0,0 0,0 0,0 -4.03174,1.72852 -4.03174,1.72852 0,0 -3.45605,1.72753 -3.45605,1.72753 0,0 0,0 0,0 0,0 -3.45557,2.30372 -3.45557,2.30372 0,0 -2.30371,2.87988 -2.30371,2.87988 0,0 0,0 0,0 0,0 -2.3042,4.03125 -2.3042,4.03125 0,0 -0.57568,4.03223 -0.57568,4.03223 0,0 0,0 0,0 0,0 0,3.45605 0,3.45605 0,0 0.57568,2.87988 0.57568,2.87988 0,0 1.72803,2.87891 1.72803,2.87891 0,0 1.72802,2.30469 1.72802,2.30469 0,0 0,0 0,0 0,0 2.87989,2.30371 2.87989,2.30371 0,0 3.45556,1.15136 3.45556,1.15136 0,0 4.03174,1.15235 4.03174,1.15235 0,0 5.1836,0 5.1836,0 0,0 0,0 0,0 0,0 5.75927,-0.57617 5.75927,-0.57617 0,0 5.75977,-1.15235 5.75977,-1.15235 0,0 0,0 0,0 0,0 5.75976,-2.8789 5.75976,-2.8789 0,0 5.75928,-4.03223 5.75928,-4.03223 0,0 0,0 0,0 0,0 0.57617,4.03223 0.57617,4.03223 0,0 0.57569,3.45507 0.57569,3.45507 0,0 0,0 0,0 0,0 0,0 0,0 0,0 0,0 0,0 z" /><path
         id="path20"
         style="fill:none;stroke:#62a230;stroke-width:1;stroke-linecap:square;stroke-linejoin:miter;stroke-miterlimit:10;stroke-dasharray:none;stroke-opacity:1"
         d="m 285.68848,-275.38574 c 0,0 0,0 0,0 0,0 -1.15186,5.75976 -1.15186,5.75976 0,0 -1.72803,4.03125 -1.72803,4.03125 0,0 0,0 0,0 0,0 -1.15185,2.30371 -1.15185,2.30371 0,0 -1.72754,1.72852 -1.72754,1.72852 0,0 -2.3042,1.15137 -2.3042,1.15137 0,0 -2.30371,1.72851 -2.30371,1.72851 0,0 0,0 0,0 0,0 -5.18359,1.72754 -5.18359,1.72754 0,0 -5.75928,0.57617 -5.75928,0.57617 0,0 0,0 0,0 0,0 -2.87988,0 -2.87988,0 0,0 -2.30372,-0.57617 -2.30372,-0.57617 0,0 -2.30419,-1.15234 -2.30419,-1.15234 0,0 -1.15186,-1.15137 -1.15186,-1.15137 0,0 0,0 0,0 0,0 -1.72754,-1.15234 -1.72754,-1.15234 0,0 -0.57617,-1.72754 -0.57617,-1.72754 0,0 -0.57568,-1.15235 -0.57568,-1.15235 0,0 0,-2.30371 0,-2.30371 0,0 0,0 0,0 0,0 0.57568,-2.30371 0.57568,-2.30371 0,0 1.15185,-2.30371 1.15185,-2.30371 0,0 0,0 0,0 0,0 2.30372,-1.72754 2.30372,-1.72754 0,0 2.30419,-1.15234 2.30419,-1.15234 0,0 0,0 0,0 0,0 3.45557,-1.15235 3.45557,-1.15235 0,0 5.75977,-0.57519 5.75977,-0.57519 0,0 0,0 0,0 0,0 9.79101,-1.72852 9.79101,-1.72852 0,0 7.48731,-2.30371 7.48731,-2.30371 0,0 0,3.45606 0,3.45606 0,0 0,0 0,0 0,0 0,0 0,0 z m 0,25.34179 c 0,0 10.94336,0 10.94336,0 0,0 0,0 0,0 0,0 -1.15186,-3.45507 -1.15186,-3.45507 0,0 -0.57617,-3.45606 -0.57617,-3.45606 0,0 0,0 0,0 0,0 0,-6.33594 0,-6.33594 0,0 0.57617,-10.94336 0.57617,-10.94336 0,0 1.15186,-12.67089 1.15186,-12.67089 0,0 0,0 0,0 0,0 0.57568,-5.75879 0.57568,-5.75879 0,0 0,-3.45606 0,-3.45606 0,0 0,0 0,0 0,0 -1.15186,-3.45605 -1.15186,-3.45605 0,0 -1.72753,-2.8794 -1.72753,-2.8794 0,0 0,0 0,0 0,0 -2.3042,-2.3042 -2.3042,-2.3042 0,0 -4.03174,-2.30371 -4.03174,-2.30371 0,0 0,0 0,0 0,0 -5.75928,-1.15185 -5.75928,-1.15185 0,0 -6.91162,-0.57569 -6.91162,-0.57569 0,0 0,0 0,0 0,0 -7.48731,0.57569 -7.48731,0.57569 0,0 -6.91162,1.72803 -6.91162,1.72803 0,0 0,0 0,0 0,0 -5.18359,2.30371 -5.18359,2.30371 0,0 -2.30371,1.72802 -2.30371,1.72802 0,0 -2.30371,1.72754 -2.30371,1.72754 0,0 0,0 0,0 0,0 -2.87989,4.03174 -2.87989,4.03174 0,0 -2.30371,5.75977 -2.30371,5.75977 0,0 9.79102,1.15136 9.79102,1.15136 0,0 0,0 0,0 0,0 1.15186,-2.8789 1.15186,-2.8789 0,0 1.72802,-2.30469 1.72802,-2.30469 0,0 1.72803,-1.72754 1.72803,-1.72754 0,0 1.72754,-1.15137 1.72754,-1.15137 0,0 0,0 0,0 0,0 1.72803,-1.15234 1.72803,-1.15234 0,0 2.87988,-1.15186 2.87988,-1.15186 0,0 6.33545,-0.57617 6.33545,-0.57617 0,0 0,0 0,0 0,0 3.45556,0.57617 3.45556,0.57617 0,0 3.45606,0.57569 3.45606,0.57569 0,0 2.30371,1.15234 2.30371,1.15234 0,0 2.30371,1.15137 2.30371,1.15137 0,0 0,0 0,0 0,0 1.15186,1.72851 1.15186,1.72851 0,0 0.57617,1.72754 0.57617,1.72754 0,0 0.57568,2.30371 0.57568,2.30371 0,0 0,2.87989 0,2.87989 0,0 0,0 0,0 0,0 -0.57568,2.30371 -0.57568,2.30371 0,0 0,0 0,0 0,0 -7.48731,1.72754 -7.48731,1.72754 0,0 -10.94336,1.72851 -10.94336,1.72851 0,0 0,0 0,0 0,0 -9.79101,1.15137 -9.79101,1.15137 0,0 0,0 0,0 0,0 -4.03174,1.72852 -4.03174,1.72852 0,0 -3.45605,1.72753 -3.45605,1.72753 0,0 0,0 0,0 0,0 -3.45557,2.30372 -3.45557,2.30372 0,0 -2.30371,2.87988 -2.30371,2.87988 0,0 0,0 0,0 0,0 -2.3042,4.03125 -2.3042,4.03125 0,0 -0.57568,4.03223 -0.57568,4.03223 0,0 0,0 0,0 0,0 0,3.45605 0,3.45605 0,0 0.57568,2.87988 0.57568,2.87988 0,0 1.72803,2.87891 1.72803,2.87891 0,0 1.72802,2.30469 1.72802,2.30469 0,0 0,0 0,0 0,0 2.87989,2.30371 2.87989,2.30371 0,0 3.45556,1.15136 3.45556,1.15136 0,0 4.03174,1.15235 4.03174,1.15235 0,0 5.1836,0 5.1836,0 0,0 0,0 0,0 0,0 5.75927,-0.57617 5.75927,-0.57617 0,0 5.75977,-1.15235 5.75977,-1.15235 0,0 0,0 0,0 0,0 5.75976,-2.8789 5.75976,-2.8789 0,0 5.75928,-4.03223 5.75928,-4.03223 0,0 0,0 0,0 0,0 0.57617,4.03223 0.57617,4.03223 0,0 0.57569,3.45507 0.57569,3.45507 0,0 0,0 0,0 0,0 0,0 0,0 0,0 0,0 0,0 z" /><path
         id="path22"
         style="fill:#62a230;fill-opacity:1;fill-rule:nonzero;stroke:none"
         d="m 322.5498,-250.04395 c 0,0 4.60743,-49.53222 4.60743,-49.53222 0,0 11.51953,0 11.51953,0 0,0 0.57568,-7.48731 0.57568,-7.48731 0,0 -11.51904,0 -11.51904,0 0,0 0.57617,-5.18359 0.57617,-5.18359 0,0 0,0 0,0 0,0 0.57568,-4.60742 0.57568,-4.60742 0,0 0.57618,-1.72803 0.57618,-1.72803 0,0 1.15185,-1.15186 1.15185,-1.15186 0,0 0,0 0,0 0,0 1.15186,-0.57617 1.15186,-0.57617 0,0 1.72802,-0.57568 1.72802,-0.57568 0,0 4.03125,-0.57617 4.03125,-0.57617 0,0 0,0 0,0 0,0 6.33594,0.57617 6.33594,0.57617 0,0 2.30371,-8.63916 2.30371,-8.63916 0,0 0,0 0,0 0,0 -5.18359,-0.57617 -5.18359,-0.57617 0,0 -4.60791,0 -4.60791,0 0,0 0,0 0,0 0,0 -6.33545,0.57617 -6.33545,0.57617 0,0 -2.30371,0.57568 -2.30371,0.57568 0,0 -2.30371,1.15186 -2.30371,1.15186 0,0 0,0 0,0 0,0 -3.45606,2.30371 -3.45606,2.30371 0,0 -2.30371,3.45605 -2.30371,3.45605 0,0 0,0 0,0 0,0 -1.15185,3.45557 -1.15185,3.45557 0,0 -0.57569,5.18359 -0.57569,5.18359 0,0 -0.57617,6.33545 -0.57617,6.33545 0,0 -9.21533,0 -9.21533,0 0,0 -0.57617,7.48731 -0.57617,7.48731 0,0 9.21533,0 9.21533,0 0,0 -4.60742,49.53222 -4.60742,49.53222 0,0 10.36718,0 10.36718,0 0,0 0,0 0,0 0,0 0,0 0,0 z" /><path
         id="path24"
         style="fill:none;stroke:#62a230;stroke-width:1;stroke-linecap:square;stroke-linejoin:miter;stroke-miterlimit:10;stroke-dasharray:none;stroke-opacity:1"
         d="m 322.5498,-250.04395 c 0,0 4.60743,-49.53222 4.60743,-49.53222 0,0 11.51953,0 11.51953,0 0,0 0.57568,-7.48731 0.57568,-7.48731 0,0 -11.51904,0 -11.51904,0 0,0 0.57617,-5.18359 0.57617,-5.18359 0,0 0,0 0,0 0,0 0.57568,-4.60742 0.57568,-4.60742 0,0 0.57618,-1.72803 0.57618,-1.72803 0,0 1.15185,-1.15186 1.15185,-1.15186 0,0 0,0 0,0 0,0 1.15186,-0.57617 1.15186,-0.57617 0,0 1.72802,-0.57568 1.72802,-0.57568 0,0 4.03125,-0.57617 4.03125,-0.57617 0,0 0,0 0,0 0,0 6.33594,0.57617 6.33594,0.57617 0,0 2.30371,-8.63916 2.30371,-8.63916 0,0 0,0 0,0 0,0 -5.18359,-0.57617 -5.18359,-0.57617 0,0 -4.60791,0 -4.60791,0 0,0 0,0 0,0 0,0 -6.33545,0.57617 -6.33545,0.57617 0,0 -2.30371,0.57568 -2.30371,0.57568 0,0 -2.30371,1.15186 -2.30371,1.15186 0,0 0,0 0,0 0,0 -3.45606,2.30371 -3.45606,2.30371 0,0 -2.30371,3.45605 -2.30371,3.45605 0,0 0,0 0,0 0,0 -1.15185,3.45557 -1.15185,3.45557 0,0 -0.57569,5.18359 -0.57569,5.18359 0,0 -0.57617,6.33545 -0.57617,6.33545 0,0 -9.21533,0 -9.21533,0 0,0 -0.57617,7.48731 -0.57617,7.48731 0,0 9.21533,0 9.21533,0 0,0 -4.60742,49.53222 -4.60742,49.53222 0,0 10.36718,0 10.36718,0 0,0 0,0 0,0 0,0 0,0 0,0 z" /><path
         id="path26"
         style="fill:#62a230;fill-opacity:1;fill-rule:nonzero;stroke:none"
         d="m 383.60107,-275.38574 c 0,0 0,0 0,0 0,0 -0.57568,5.75976 -0.57568,5.75976 0,0 -1.72803,4.03125 -1.72803,4.03125 0,0 0,0 0,0 0,0 -1.72802,2.30371 -1.72802,2.30371 0,0 -1.72803,1.72852 -1.72803,1.72852 0,0 -1.72754,1.15137 -1.72754,1.15137 0,0 -2.30371,1.72851 -2.30371,1.72851 0,0 0,0 0,0 0,0 -5.1836,1.72754 -5.1836,1.72754 0,0 -5.75976,0.57617 -5.75976,0.57617 0,0 0,0 0,0 0,0 -2.87988,0 -2.87988,0 0,0 -2.30371,-0.57617 -2.30371,-0.57617 0,0 -2.30372,-1.15234 -2.30372,-1.15234 0,0 -1.72802,-1.15137 -1.72802,-1.15137 0,0 0,0 0,0 0,0 -1.15186,-1.15234 -1.15186,-1.15234 0,0 -0.57617,-1.72754 -0.57617,-1.72754 0,0 -0.57568,-1.15235 -0.57568,-1.15235 0,0 0,-2.30371 0,-2.30371 0,0 0,0 0,0 0,0 0.57568,-2.30371 0.57568,-2.30371 0,0 1.15186,-2.30371 1.15186,-2.30371 0,0 0,0 0,0 0,0 1.72802,-1.72754 1.72802,-1.72754 0,0 2.87989,-1.15234 2.87989,-1.15234 0,0 0,0 0,0 0,0 3.45556,-1.15235 3.45556,-1.15235 0,0 5.75977,-0.57519 5.75977,-0.57519 0,0 0,0 0,0 0,0 9.79101,-1.72852 9.79101,-1.72852 0,0 7.4878,-2.30371 7.4878,-2.30371 0,0 -0.57618,3.45606 -0.57618,3.45606 0,0 0,0 0,0 0,0 0,0 0,0 z m 0.57618,25.34179 c 0,0 10.94287,0 10.94287,0 0,0 0,0 0,0 0,0 -1.15186,-3.45507 -1.15186,-3.45507 0,0 -1.15185,-3.45606 -1.15185,-3.45606 0,0 0,0 0,0 0,0 0.57617,-6.33594 0.57617,-6.33594 0,0 0.57568,-10.94336 0.57568,-10.94336 0,0 1.15186,-12.67089 1.15186,-12.67089 0,0 0,0 0,0 0,0 0.57617,-5.75879 0.57617,-5.75879 0,0 0,-3.45606 0,-3.45606 0,0 0,0 0,0 0,0 -1.15186,-3.45605 -1.15186,-3.45605 0,0 -1.72802,-2.8794 -1.72802,-2.8794 0,0 0,0 0,0 0,0 -2.87989,-2.3042 -2.87989,-2.3042 0,0 -4.03173,-2.30371 -4.03173,-2.30371 0,0 0,0 0,0 0,0 -5.1836,-1.15185 -5.1836,-1.15185 0,0 -7.4873,-0.57569 -7.4873,-0.57569 0,0 0,0 0,0 0,0 -6.91162,0.57569 -6.91162,0.57569 0,0 -6.91114,1.72803 -6.91114,1.72803 0,0 0,0 0,0 0,0 -5.75976,2.30371 -5.75976,2.30371 0,0 -1.72803,1.72802 -1.72803,1.72802 0,0 -2.30371,1.72754 -2.30371,1.72754 0,0 0,0 0,0 0,0 -2.87988,4.03174 -2.87988,4.03174 0,0 -2.30371,5.75977 -2.30371,5.75977 0,0 9.7915,1.15136 9.7915,1.15136 0,0 0,0 0,0 0,0 1.15185,-2.8789 1.15185,-2.8789 0,0 1.72754,-2.30469 1.72754,-2.30469 0,0 1.15186,-1.72754 1.15186,-1.72754 0,0 1.72803,-1.15137 1.72803,-1.15137 0,0 0,0 0,0 0,0 2.30371,-1.15234 2.30371,-1.15234 0,0 2.3042,-1.15186 2.3042,-1.15186 0,0 6.91113,-0.57617 6.91113,-0.57617 0,0 0,0 0,0 0,0 3.45605,0.57617 3.45605,0.57617 0,0 3.45557,0.57569 3.45557,0.57569 0,0 2.30371,1.15234 2.30371,1.15234 0,0 2.3042,1.15137 2.3042,1.15137 0,0 0,0 0,0 0,0 1.15186,1.72851 1.15186,1.72851 0,0 0.57568,1.72754 0.57568,1.72754 0,0 0.57617,2.30371 0.57617,2.30371 0,0 0,2.87989 0,2.87989 0,0 0,0 0,0 0,0 -0.57617,2.30371 -0.57617,2.30371 0,0 0,0 0,0 0,0 -7.4873,1.72754 -7.4873,1.72754 0,0 -11.51905,1.72851 -11.51905,1.72851 0,0 0,0 0,0 0,0 -9.21533,1.15137 -9.21533,1.15137 0,0 0,0 0,0 0,0 -4.03174,1.72852 -4.03174,1.72852 0,0 -3.45556,1.72753 -3.45556,1.72753 0,0 0,0 0,0 0,0 -3.45606,2.30372 -3.45606,2.30372 0,0 -2.87988,2.87988 -2.87988,2.87988 0,0 0,0 0,0 0,0 -1.72754,4.03125 -1.72754,4.03125 0,0 -0.57617,4.03223 -0.57617,4.03223 0,0 0,0 0,0 0,0 0,3.45605 0,3.45605 0,0 0.57617,2.87988 0.57617,2.87988 0,0 1.15185,2.87891 1.15185,2.87891 0,0 2.30372,2.30469 2.30372,2.30469 0,0 0,0 0,0 0,0 2.87988,2.30371 2.87988,2.30371 0,0 3.45556,1.15136 3.45556,1.15136 0,0 4.03174,1.15235 4.03174,1.15235 0,0 4.60791,0 4.60791,0 0,0 0,0 0,0 0,0 6.33545,-0.57617 6.33545,-0.57617 0,0 5.75928,-1.15235 5.75928,-1.15235 0,0 0,0 0,0 0,0 5.18359,-2.8789 5.18359,-2.8789 0,0 6.33594,-4.03223 6.33594,-4.03223 0,0 0,0 0,0 0,0 0,4.03223 0,4.03223 0,0 1.15186,3.45507 1.15186,3.45507 0,0 0,0 0,0 0,0 0,0 0,0 0,0 0,0 0,0 z" /><path
         id="path28"
         style="fill:none;stroke:#62a230;stroke-width:1;stroke-linecap:square;stroke-linejoin:miter;stroke-miterlimit:10;stroke-dasharray:none;stroke-opacity:1"
         d="m 383.60107,-275.38574 c 0,0 0,0 0,0 0,0 -0.57568,5.75976 -0.57568,5.75976 0,0 -1.72803,4.03125 -1.72803,4.03125 0,0 0,0 0,0 0,0 -1.72802,2.30371 -1.72802,2.30371 0,0 -1.72803,1.72852 -1.72803,1.72852 0,0 -1.72754,1.15137 -1.72754,1.15137 0,0 -2.30371,1.72851 -2.30371,1.72851 0,0 0,0 0,0 0,0 -5.1836,1.72754 -5.1836,1.72754 0,0 -5.75976,0.57617 -5.75976,0.57617 0,0 0,0 0,0 0,0 -2.87988,0 -2.87988,0 0,0 -2.30371,-0.57617 -2.30371,-0.57617 0,0 -2.30372,-1.15234 -2.30372,-1.15234 0,0 -1.72802,-1.15137 -1.72802,-1.15137 0,0 0,0 0,0 0,0 -1.15186,-1.15234 -1.15186,-1.15234 0,0 -0.57617,-1.72754 -0.57617,-1.72754 0,0 -0.57568,-1.15235 -0.57568,-1.15235 0,0 0,-2.30371 0,-2.30371 0,0 0,0 0,0 0,0 0.57568,-2.30371 0.57568,-2.30371 0,0 1.15186,-2.30371 1.15186,-2.30371 0,0 0,0 0,0 0,0 1.72802,-1.72754 1.72802,-1.72754 0,0 2.87989,-1.15234 2.87989,-1.15234 0,0 0,0 0,0 0,0 3.45556,-1.15235 3.45556,-1.15235 0,0 5.75977,-0.57519 5.75977,-0.57519 0,0 0,0 0,0 0,0 9.79101,-1.72852 9.79101,-1.72852 0,0 7.4878,-2.30371 7.4878,-2.30371 0,0 -0.57618,3.45606 -0.57618,3.45606 0,0 0,0 0,0 0,0 0,0 0,0 z m 0.57618,25.34179 c 0,0 10.94287,0 10.94287,0 0,0 0,0 0,0 0,0 -1.15186,-3.45507 -1.15186,-3.45507 0,0 -1.15185,-3.45606 -1.15185,-3.45606 0,0 0,0 0,0 0,0 0.57617,-6.33594 0.57617,-6.33594 0,0 0.57568,-10.94336 0.57568,-10.94336 0,0 1.15186,-12.67089 1.15186,-12.67089 0,0 0,0 0,0 0,0 0.57617,-5.75879 0.57617,-5.75879 0,0 0,-3.45606 0,-3.45606 0,0 0,0 0,0 0,0 -1.15186,-3.45605 -1.15186,-3.45605 0,0 -1.72802,-2.8794 -1.72802,-2.8794 0,0 0,0 0,0 0,0 -2.87989,-2.3042 -2.87989,-2.3042 0,0 -4.03173,-2.30371 -4.03173,-2.30371 0,0 0,0 0,0 0,0 -5.1836,-1.15185 -5.1836,-1.15185 0,0 -7.4873,-0.57569 -7.4873,-0.57569 0,0 0,0 0,0 0,0 -6.91162,0.57569 -6.91162,0.57569 0,0 -6.91114,1.72803 -6.91114,1.72803 0,0 0,0 0,0 0,0 -5.75976,2.30371 -5.75976,2.30371 0,0 -1.72803,1.72802 -1.72803,1.72802 0,0 -2.30371,1.72754 -2.30371,1.72754 0,0 0,0 0,0 0,0 -2.87988,4.03174 -2.87988,4.03174 0,0 -2.30371,5.75977 -2.30371,5.75977 0,0 9.7915,1.15136 9.7915,1.15136 0,0 0,0 0,0 0,0 1.15185,-2.8789 1.15185,-2.8789 0,0 1.72754,-2.30469 1.72754,-2.30469 0,0 1.15186,-1.72754 1.15186,-1.72754 0,0 1.72803,-1.15137 1.72803,-1.15137 0,0 0,0 0,0 0,0 2.30371,-1.15234 2.30371,-1.15234 0,0 2.3042,-1.15186 2.3042,-1.15186 0,0 6.91113,-0.57617 6.91113,-0.57617 0,0 0,0 0,0 0,0 3.45605,0.57617 3.45605,0.57617 0,0 3.45557,0.57569 3.45557,0.57569 0,0 2.30371,1.15234 2.30371,1.15234 0,0 2.3042,1.15137 2.3042,1.15137 0,0 0,0 0,0 0,0 1.15186,1.72851 1.15186,1.72851 0,0 0.57568,1.72754 0.57568,1.72754 0,0 0.57617,2.30371 0.57617,2.30371 0,0 0,2.87989 0,2.87989 0,0 0,0 0,0 0,0 -0.57617,2.30371 -0.57617,2.30371 0,0 0,0 0,0 0,0 -7.4873,1.72754 -7.4873,1.72754 0,0 -11.51905,1.72851 -11.51905,1.72851 0,0 0,0 0,0 0,0 -9.21533,1.15137 -9.21533,1.15137 0,0 0,0 0,0 0,0 -4.03174,1.72852 -4.03174,1.72852 0,0 -3.45556,1.72753 -3.45556,1.72753 0,0 0,0 0,0 0,0 -3.45606,2.30372 -3.45606,2.30372 0,0 -2.87988,2.87988 -2.87988,2.87988 0,0 0,0 0,0 0,0 -1.72754,4.03125 -1.72754,4.03125 0,0 -0.57617,4.03223 -0.57617,4.03223 0,0 0,0 0,0 0,0 0,3.45605 0,3.45605 0,0 0.57617,2.87988 0.57617,2.87988 0,0 1.15185,2.87891 1.15185,2.87891 0,0 2.30372,2.30469 2.30372,2.30469 0,0 0,0 0,0 0,0 2.87988,2.30371 2.87988,2.30371 0,0 3.45556,1.15136 3.45556,1.15136 0,0 4.03174,1.15235 4.03174,1.15235 0,0 4.60791,0 4.60791,0 0,0 0,0 0,0 0,0 6.33545,-0.57617 6.33545,-0.57617 0,0 5.75928,-1.15235 5.75928,-1.15235 0,0 0,0 0,0 0,0 5.18359,-2.8789 5.18359,-2.8789 0,0 6.33594,-4.03223 6.33594,-4.03223 0,0 0,0 0,0 0,0 0,4.03223 0,4.03223 0,0 1.15186,3.45507 1.15186,3.45507 0,0 0,0 0,0 0,0 0,0 0,0 0,0 0,0 0,0 z" /><path
         id="path30"
         style="fill:#62a230;fill-opacity:1;fill-rule:nonzero;stroke:none"
         d="m 418.1582,-250.04395 c 0,0 2.87989,-29.94921 2.87989,-29.94921 0,0 0,0 0,0 0,0 0.57617,-5.75977 0.57617,-5.75977 0,0 1.72754,-5.75977 1.72754,-5.75977 0,0 0,0 0,0 0,0 2.30371,-2.87988 2.30371,-2.87988 0,0 2.30371,-2.30371 2.30371,-2.30371 0,0 0,0 0,0 0,0 2.87988,-1.15137 2.87988,-1.15137 0,0 3.45606,-0.57617 3.45606,-0.57617 0,0 0,0 0,0 0,0 3.45605,0.57617 3.45605,0.57617 0,0 4.03125,1.15137 4.03125,1.15137 0,0 4.03223,-8.63916 4.03223,-8.63916 0,0 0,0 0,0 0,0 -2.30469,-1.72803 -2.30469,-1.72803 0,0 -2.87891,-0.57568 -2.87891,-0.57568 0,0 -2.30468,-0.57617 -2.30468,-0.57617 0,0 -2.87891,-0.57569 -2.87891,-0.57569 0,0 0,0 0,0 0,0 -3.45605,0.57569 -3.45605,0.57569 0,0 -2.87989,1.72803 -2.87989,1.72803 0,0 0,0 0,0 0,0 -3.45605,2.87988 -3.45605,2.87988 0,0 -4.03125,5.18359 -4.03125,5.18359 0,0 0.57617,-8.63965 0.57617,-8.63965 0,0 -9.21582,0 -9.21582,0 0,0 -5.18359,57.01953 -5.18359,57.01953 0,0 10.36718,0 10.36718,0 0,0 0,0 0,0 0,0 0,0 0,0 z" /><path
         id="path32"
         style="fill:none;stroke:#62a230;stroke-width:1;stroke-linecap:square;stroke-linejoin:miter;stroke-miterlimit:10;stroke-dasharray:none;stroke-opacity:1"
         d="m 418.1582,-250.04395 c 0,0 2.87989,-29.94921 2.87989,-29.94921 0,0 0,0 0,0 0,0 0.57617,-5.75977 0.57617,-5.75977 0,0 1.72754,-5.75977 1.72754,-5.75977 0,0 0,0 0,0 0,0 2.30371,-2.87988 2.30371,-2.87988 0,0 2.30371,-2.30371 2.30371,-2.30371 0,0 0,0 0,0 0,0 2.87988,-1.15137 2.87988,-1.15137 0,0 3.45606,-0.57617 3.45606,-0.57617 0,0 0,0 0,0 0,0 3.45605,0.57617 3.45605,0.57617 0,0 4.03125,1.15137 4.03125,1.15137 0,0 4.03223,-8.63916 4.03223,-8.63916 0,0 0,0 0,0 0,0 -2.30469,-1.72803 -2.30469,-1.72803 0,0 -2.87891,-0.57568 -2.87891,-0.57568 0,0 -2.30468,-0.57617 -2.30468,-0.57617 0,0 -2.87891,-0.57569 -2.87891,-0.57569 0,0 0,0 0,0 0,0 -3.45605,0.57569 -3.45605,0.57569 0,0 -2.87989,1.72803 -2.87989,1.72803 0,0 0,0 0,0 0,0 -3.45605,2.87988 -3.45605,2.87988 0,0 -4.03125,5.18359 -4.03125,5.18359 0,0 0.57617,-8.63965 0.57617,-8.63965 0,0 -9.21582,0 -9.21582,0 0,0 -5.18359,57.01953 -5.18359,57.01953 0,0 10.36718,0 10.36718,0 0,0 0,0 0,0 0,0 0,0 0,0 z" /><path
         id="path34"
         style="fill:#62a230;fill-opacity:1;fill-rule:nonzero;stroke:none"
         d="m 457.32324,-250.04395 c 0,0 5.1836,-57.01953 5.1836,-57.01953 0,0 -10.36719,0 -10.36719,0 0,0 -5.1836,57.01953 -5.1836,57.01953 0,0 10.36719,0 10.36719,0 0,0 0,0 0,0 0,0 0,0 0,0 z m 6.33594,-67.9624 c 0,0 1.15137,-10.94336 1.15137,-10.94336 0,0 -10.36719,0 -10.36719,0 0,0 -1.15137,10.94336 -1.15137,10.94336 0,0 10.36719,0 10.36719,0 0,0 0,0 0,0 0,0 0,0 0,0 z" /><path
         id="path36"
         style="fill:none;stroke:#62a230;stroke-width:1;stroke-linecap:square;stroke-linejoin:miter;stroke-miterlimit:10;stroke-dasharray:none;stroke-opacity:1"
         d="m 457.32324,-250.04395 c 0,0 5.1836,-57.01953 5.1836,-57.01953 0,0 -10.36719,0 -10.36719,0 0,0 -5.1836,57.01953 -5.1836,57.01953 0,0 10.36719,0 10.36719,0 0,0 0,0 0,0 0,0 0,0 0,0 z m 6.33594,-67.9624 c 0,0 1.15137,-10.94336 1.15137,-10.94336 0,0 -10.36719,0 -10.36719,0 0,0 -1.15137,10.94336 -1.15137,10.94336 0,0 10.36719,0 10.36719,0 0,0 0,0 0,0 0,0 0,0 0,0 z" /><path
         id="path38"
         style="fill:#62a230;fill-opacity:1;fill-rule:nonzero;stroke:none"
         d="m 509.15918,-260.41113 c 0,0 0,0 0,0 0,0 -2.30371,1.72851 -2.30371,1.72851 0,0 -2.87988,1.15137 -2.87988,1.15137 0,0 -2.30371,0.57617 -2.30371,0.57617 0,0 -3.45606,0 -3.45606,0 0,0 0,0 0,0 0,0 -3.45508,0 -3.45508,0 0,0 -2.87988,-1.15234 -2.87988,-1.15234 0,0 -2.87988,-1.72754 -2.87988,-1.72754 0,0 -2.30371,-2.30371 -2.30371,-2.30371 0,0 0,0 0,0 0,0 -1.72754,-2.87988 -1.72754,-2.87988 0,0 -1.15235,-3.45606 -1.15235,-3.45606 0,0 -0.57617,-4.60742 -0.57617,-4.60742 0,0 0.57617,-5.75977 0.57617,-5.75977 0,0 0,0 0,0 0,0 0.57617,-5.18359 0.57617,-5.18359 0,0 1.15137,-4.60742 1.15137,-4.60742 0,0 2.30371,-3.45606 2.30371,-3.45606 0,0 2.30469,-3.45508 2.30469,-3.45508 0,0 0,0 0,0 0,0 2.87891,-2.30371 2.87891,-2.30371 0,0 2.87988,-1.72851 2.87988,-1.72851 0,0 3.45605,-0.57569 3.45605,-0.57569 0,0 4.03125,-0.57617 4.03125,-0.57617 0,0 0,0 0,0 0,0 2.30469,0.57617 2.30469,0.57617 0,0 2.30371,0 2.30371,0 0,0 1.72754,1.15186 1.72754,1.15186 0,0 1.72754,1.15234 1.72754,1.15234 0,0 0,0 0,0 0,0 1.72852,1.72754 1.72852,1.72754 0,0 1.15136,2.30371 1.15136,2.30371 0,0 1.15235,2.30371 1.15235,2.30371 0,0 0.57617,2.30372 0.57617,2.30372 0,0 9.79101,-1.15137 9.79101,-1.15137 0,0 0,0 0,0 0,0 -0.57617,-4.03223 -0.57617,-4.03223 0,0 -1.15136,-3.45508 -1.15136,-3.45508 0,0 -2.30469,-3.45605 -2.30469,-3.45605 0,0 -2.30371,-2.30371 -2.30371,-2.30371 0,0 0,0 0,0 0,0 -3.45508,-2.3042 -3.45508,-2.3042 0,0 -3.45606,-1.15186 -3.45606,-1.15186 0,0 -4.60742,-1.15185 -4.60742,-1.15185 0,0 -4.6084,-0.57569 -4.6084,-0.57569 0,0 0,0 0,0 0,0 -4.03125,0.57569 -4.03125,0.57569 0,0 -3.45605,0.57617 -3.45605,0.57617 0,0 -4.03125,1.15186 -4.03125,1.15186 0,0 -3.45606,1.15185 -3.45606,1.15185 0,0 0,0 0,0 0,0 -2.87988,2.30371 -2.87988,2.30371 0,0 -3.45508,2.30371 -3.45508,2.30371 0,0 -2.30371,2.88037 -2.30371,2.88037 0,0 -2.30468,3.45508 -2.30468,3.45508 0,0 0,0 0,0 0,0 -1.72754,3.45606 -1.72754,3.45606 0,0 -1.15137,4.03125 -1.15137,4.03125 0,0 -1.15234,4.03222 -1.15234,4.03222 0,0 -0.57618,4.60742 -0.57618,4.60742 0,0 0,0 0,0 0,0 0,6.33594 0,6.33594 0,0 0.57618,6.33496 0.57618,6.33496 0,0 2.30371,4.60743 2.30371,4.60743 0,0 2.87988,4.60839 2.87988,4.60839 0,0 0,0 0,0 0,0 3.45605,3.45508 3.45605,3.45508 0,0 4.60743,2.30371 4.60743,2.30371 0,0 5.18359,1.15235 5.18359,1.15235 0,0 5.75977,0.57617 5.75977,0.57617 0,0 0,0 0,0 0,0 5.18359,0 5.18359,0 0,0 4.60742,-1.15235 4.60742,-1.15235 0,0 4.03125,-1.72753 4.03125,-1.72753 0,0 4.03223,-2.30372 4.03223,-2.30372 0,0 0,0 0,0 0,0 2.87988,-3.45605 2.87988,-3.45605 0,0 2.87988,-3.45605 2.87988,-3.45605 0,0 2.30371,-4.03125 2.30371,-4.03125 0,0 1.72754,-4.60743 1.72754,-4.60743 0,0 -10.36718,-1.15234 -10.36718,-1.15234 0,0 0,0 0,0 0,0 -0.57618,3.45605 -0.57618,3.45605 0,0 -1.72754,2.87989 -1.72754,2.87989 0,0 -1.72753,2.30371 -1.72753,2.30371 0,0 -1.72852,1.72754 -1.72852,1.72754 0,0 0,0 0,0 0,0 0,0 0,0 z" /><path
         id="path40"
         style="fill:none;stroke:#62a230;stroke-width:1;stroke-linecap:square;stroke-linejoin:miter;stroke-miterlimit:10;stroke-dasharray:none;stroke-opacity:1"
         d="m 509.15918,-260.41113 c 0,0 0,0 0,0 0,0 -2.30371,1.72851 -2.30371,1.72851 0,0 -2.87988,1.15137 -2.87988,1.15137 0,0 -2.30371,0.57617 -2.30371,0.57617 0,0 -3.45606,0 -3.45606,0 0,0 0,0 0,0 0,0 -3.45508,0 -3.45508,0 0,0 -2.87988,-1.15234 -2.87988,-1.15234 0,0 -2.87988,-1.72754 -2.87988,-1.72754 0,0 -2.30371,-2.30371 -2.30371,-2.30371 0,0 0,0 0,0 0,0 -1.72754,-2.87988 -1.72754,-2.87988 0,0 -1.15235,-3.45606 -1.15235,-3.45606 0,0 -0.57617,-4.60742 -0.57617,-4.60742 0,0 0.57617,-5.75977 0.57617,-5.75977 0,0 0,0 0,0 0,0 0.57617,-5.18359 0.57617,-5.18359 0,0 1.15137,-4.60742 1.15137,-4.60742 0,0 2.30371,-3.45606 2.30371,-3.45606 0,0 2.30469,-3.45508 2.30469,-3.45508 0,0 0,0 0,0 0,0 2.87891,-2.30371 2.87891,-2.30371 0,0 2.87988,-1.72851 2.87988,-1.72851 0,0 3.45605,-0.57569 3.45605,-0.57569 0,0 4.03125,-0.57617 4.03125,-0.57617 0,0 0,0 0,0 0,0 2.30469,0.57617 2.30469,0.57617 0,0 2.30371,0 2.30371,0 0,0 1.72754,1.15186 1.72754,1.15186 0,0 1.72754,1.15234 1.72754,1.15234 0,0 0,0 0,0 0,0 1.72852,1.72754 1.72852,1.72754 0,0 1.15136,2.30371 1.15136,2.30371 0,0 1.15235,2.30371 1.15235,2.30371 0,0 0.57617,2.30372 0.57617,2.30372 0,0 9.79101,-1.15137 9.79101,-1.15137 0,0 0,0 0,0 0,0 -0.57617,-4.03223 -0.57617,-4.03223 0,0 -1.15136,-3.45508 -1.15136,-3.45508 0,0 -2.30469,-3.45605 -2.30469,-3.45605 0,0 -2.30371,-2.30371 -2.30371,-2.30371 0,0 0,0 0,0 0,0 -3.45508,-2.3042 -3.45508,-2.3042 0,0 -3.45606,-1.15186 -3.45606,-1.15186 0,0 -4.60742,-1.15185 -4.60742,-1.15185 0,0 -4.6084,-0.57569 -4.6084,-0.57569 0,0 0,0 0,0 0,0 -4.03125,0.57569 -4.03125,0.57569 0,0 -3.45605,0.57617 -3.45605,0.57617 0,0 -4.03125,1.15186 -4.03125,1.15186 0,0 -3.45606,1.15185 -3.45606,1.15185 0,0 0,0 0,0 0,0 -2.87988,2.30371 -2.87988,2.30371 0,0 -3.45508,2.30371 -3.45508,2.30371 0,0 -2.30371,2.88037 -2.30371,2.88037 0,0 -2.30468,3.45508 -2.30468,3.45508 0,0 0,0 0,0 0,0 -1.72754,3.45606 -1.72754,3.45606 0,0 -1.15137,4.03125 -1.15137,4.03125 0,0 -1.15234,4.03222 -1.15234,4.03222 0,0 -0.57618,4.60742 -0.57618,4.60742 0,0 0,0 0,0 0,0 0,6.33594 0,6.33594 0,0 0.57618,6.33496 0.57618,6.33496 0,0 2.30371,4.60743 2.30371,4.60743 0,0 2.87988,4.60839 2.87988,4.60839 0,0 0,0 0,0 0,0 3.45605,3.45508 3.45605,3.45508 0,0 4.60743,2.30371 4.60743,2.30371 0,0 5.18359,1.15235 5.18359,1.15235 0,0 5.75977,0.57617 5.75977,0.57617 0,0 0,0 0,0 0,0 5.18359,0 5.18359,0 0,0 4.60742,-1.15235 4.60742,-1.15235 0,0 4.03125,-1.72753 4.03125,-1.72753 0,0 4.03223,-2.30372 4.03223,-2.30372 0,0 0,0 0,0 0,0 2.87988,-3.45605 2.87988,-3.45605 0,0 2.87988,-3.45605 2.87988,-3.45605 0,0 2.30371,-4.03125 2.30371,-4.03125 0,0 1.72754,-4.60743 1.72754,-4.60743 0,0 -10.36718,-1.15234 -10.36718,-1.15234 0,0 0,0 0,0 0,0 -0.57618,3.45605 -0.57618,3.45605 0,0 -1.72754,2.87989 -1.72754,2.87989 0,0 -1.72753,2.30371 -1.72753,2.30371 0,0 -1.72852,1.72754 -1.72852,1.72754 0,0 0,0 0,0 0,0 0,0 0,0 z" /><path
         id="path42"
         style="fill:#62a230;fill-opacity:1;fill-rule:nonzero;stroke:none"
         d="m 548.32422,-294.96875 c 0,0 0,0 0,0 0,0 2.87988,-2.30371 2.87988,-2.30371 0,0 3.45606,-1.72754 3.45606,-1.72754 0,0 3.45507,-1.15186 3.45507,-1.15186 0,0 3.45606,-0.57617 3.45606,-0.57617 0,0 0,0 0,0 0,0 4.03223,0.57617 4.03223,0.57617 0,0 2.8789,1.15186 2.8789,1.15186 0,0 2.87988,1.72754 2.87988,1.72754 0,0 2.87989,2.30371 2.87989,2.30371 0,0 0,0 0,0 0,0 1.72851,2.87988 1.72851,2.87988 0,0 1.15137,4.03223 1.15137,4.03223 0,0 0.57617,4.03125 0.57617,4.03125 0,0 0,5.18359 0,5.18359 0,0 0,0 0,0 0,0 -0.57617,5.1836 -0.57617,5.1836 0,0 -1.72754,4.60742 -1.72754,4.60742 0,0 -1.72851,4.03223 -1.72851,4.03223 0,0 -2.87891,2.87988 -2.87891,2.87988 0,0 0,0 0,0 0,0 -2.87988,2.30371 -2.87988,2.30371 0,0 -2.87989,1.72754 -2.87989,1.72754 0,0 -3.45605,1.15234 -3.45605,1.15234 0,0 -4.03125,0 -4.03125,0 0,0 0,0 0,0 0,0 -3.45606,0 -3.45606,0 0,0 -3.45605,-1.15234 -3.45605,-1.15234 0,0 -2.87988,-1.72754 -2.87988,-1.72754 0,0 -2.30371,-2.30371 -2.30371,-2.30371 0,0 0,0 0,0 0,0 -2.30371,-2.87988 -2.30371,-2.87988 0,0 -1.15137,-4.03223 -1.15137,-4.03223 0,0 -0.57617,-4.60742 -0.57617,-4.60742 0,0 0,-5.1836 0,-5.1836 0,0 0,0 0,0 0,0 1.15136,-5.18359 1.15136,-5.18359 0,0 1.15235,-4.03125 1.15235,-4.03125 0,0 2.30371,-4.03223 2.30371,-4.03223 0,0 2.30371,-2.87988 2.30371,-2.87988 0,0 0,0 0,0 0,0 0,0 0,0 z m -11.51856,38.58984 c 0,0 0,0 0,0 0,0 4.03125,3.45508 4.03125,3.45508 0,0 4.60743,2.30371 4.60743,2.30371 0,0 5.18359,1.15235 5.18359,1.15235 0,0 6.33594,0.57617 6.33594,0.57617 0,0 0,0 0,0 0,0 4.03125,0 4.03125,0 0,0 3.45605,-0.57617 3.45605,-0.57617 0,0 4.03125,-1.15235 4.03125,-1.15235 0,0 3.45606,-1.72754 3.45606,-1.72754 0,0 0,0 0,0 0,0 3.45605,-1.72754 3.45605,-1.72754 0,0 2.87988,-2.30371 2.87988,-2.30371 0,0 2.87989,-2.87988 2.87989,-2.87988 0,0 2.30371,-2.87988 2.30371,-2.87988 0,0 0,0 0,0 0,0 1.72754,-3.45606 1.72754,-3.45606 0,0 1.15234,-4.03125 1.15234,-4.03125 0,0 1.15137,-4.6084 1.15137,-4.6084 0,0 1.15234,-5.18359 1.15234,-5.18359 0,0 0,0 0,0 0,0 0,-6.33496 0,-6.33496 0,0 -1.15234,-5.75977 -1.15234,-5.75977 0,0 -2.30371,-5.18359 -2.30371,-5.18359 0,0 -2.87989,-4.03174 -2.87989,-4.03174 0,0 0,0 0,0 0,0 -4.03125,-3.45556 -4.03125,-3.45556 0,0 -4.60839,-2.30371 -4.60839,-2.30371 0,0 -5.1836,-1.72803 -5.1836,-1.72803 0,0 -5.75879,-0.57569 -5.75879,-0.57569 0,0 0,0 0,0 0,0 -5.75976,0.57569 -5.75976,0.57569 0,0 -5.1836,1.15185 -5.1836,1.15185 0,0 -4.60742,2.30371 -4.60742,2.30371 0,0 -4.6084,2.3042 -4.6084,2.3042 0,0 0,0 0,0 0,0 -2.30371,2.30371 -2.30371,2.30371 0,0 -2.30371,2.3042 -2.30371,2.3042 0,0 -1.72754,2.30371 -1.72754,2.30371 0,0 -1.72754,2.87989 -1.72754,2.87989 0,0 -2.30468,6.33496 -2.30468,6.33496 0,0 -1.15137,7.4873 -1.15137,7.4873 0,0 0,0 0,0 0,0 0,6.91211 0,6.91211 0,0 0.57617,6.33496 0.57617,6.33496 0,0 2.30371,4.60743 2.30371,4.60743 0,0 2.87988,4.60839 2.87988,4.60839 0,0 0,0 0,0 0,0 0,0 0,0 z" /><path
         id="path44"
         style="fill:none;stroke:#62a230;stroke-width:1;stroke-linecap:square;stroke-linejoin:miter;stroke-miterlimit:10;stroke-dasharray:none;stroke-opacity:1"
         d="m 548.32422,-294.96875 c 0,0 0,0 0,0 0,0 2.87988,-2.30371 2.87988,-2.30371 0,0 3.45606,-1.72754 3.45606,-1.72754 0,0 3.45507,-1.15186 3.45507,-1.15186 0,0 3.45606,-0.57617 3.45606,-0.57617 0,0 0,0 0,0 0,0 4.03223,0.57617 4.03223,0.57617 0,0 2.8789,1.15186 2.8789,1.15186 0,0 2.87988,1.72754 2.87988,1.72754 0,0 2.87989,2.30371 2.87989,2.30371 0,0 0,0 0,0 0,0 1.72851,2.87988 1.72851,2.87988 0,0 1.15137,4.03223 1.15137,4.03223 0,0 0.57617,4.03125 0.57617,4.03125 0,0 0,5.18359 0,5.18359 0,0 0,0 0,0 0,0 -0.57617,5.1836 -0.57617,5.1836 0,0 -1.72754,4.60742 -1.72754,4.60742 0,0 -1.72851,4.03223 -1.72851,4.03223 0,0 -2.87891,2.87988 -2.87891,2.87988 0,0 0,0 0,0 0,0 -2.87988,2.30371 -2.87988,2.30371 0,0 -2.87989,1.72754 -2.87989,1.72754 0,0 -3.45605,1.15234 -3.45605,1.15234 0,0 -4.03125,0 -4.03125,0 0,0 0,0 0,0 0,0 -3.45606,0 -3.45606,0 0,0 -3.45605,-1.15234 -3.45605,-1.15234 0,0 -2.87988,-1.72754 -2.87988,-1.72754 0,0 -2.30371,-2.30371 -2.30371,-2.30371 0,0 0,0 0,0 0,0 -2.30371,-2.87988 -2.30371,-2.87988 0,0 -1.15137,-4.03223 -1.15137,-4.03223 0,0 -0.57617,-4.60742 -0.57617,-4.60742 0,0 0,-5.1836 0,-5.1836 0,0 0,0 0,0 0,0 1.15136,-5.18359 1.15136,-5.18359 0,0 1.15235,-4.03125 1.15235,-4.03125 0,0 2.30371,-4.03223 2.30371,-4.03223 0,0 2.30371,-2.87988 2.30371,-2.87988 0,0 0,0 0,0 0,0 0,0 0,0 z m -11.51856,38.58984 c 0,0 0,0 0,0 0,0 4.03125,3.45508 4.03125,3.45508 0,0 4.60743,2.30371 4.60743,2.30371 0,0 5.18359,1.15235 5.18359,1.15235 0,0 6.33594,0.57617 6.33594,0.57617 0,0 0,0 0,0 0,0 4.03125,0 4.03125,0 0,0 3.45605,-0.57617 3.45605,-0.57617 0,0 4.03125,-1.15235 4.03125,-1.15235 0,0 3.45606,-1.72754 3.45606,-1.72754 0,0 0,0 0,0 0,0 3.45605,-1.72754 3.45605,-1.72754 0,0 2.87988,-2.30371 2.87988,-2.30371 0,0 2.87989,-2.87988 2.87989,-2.87988 0,0 2.30371,-2.87988 2.30371,-2.87988 0,0 0,0 0,0 0,0 1.72754,-3.45606 1.72754,-3.45606 0,0 1.15234,-4.03125 1.15234,-4.03125 0,0 1.15137,-4.6084 1.15137,-4.6084 0,0 1.15234,-5.18359 1.15234,-5.18359 0,0 0,0 0,0 0,0 0,-6.33496 0,-6.33496 0,0 -1.15234,-5.75977 -1.15234,-5.75977 0,0 -2.30371,-5.18359 -2.30371,-5.18359 0,0 -2.87989,-4.03174 -2.87989,-4.03174 0,0 0,0 0,0 0,0 -4.03125,-3.45556 -4.03125,-3.45556 0,0 -4.60839,-2.30371 -4.60839,-2.30371 0,0 -5.1836,-1.72803 -5.1836,-1.72803 0,0 -5.75879,-0.57569 -5.75879,-0.57569 0,0 0,0 0,0 0,0 -5.75976,0.57569 -5.75976,0.57569 0,0 -5.1836,1.15185 -5.1836,1.15185 0,0 -4.60742,2.30371 -4.60742,2.30371 0,0 -4.6084,2.3042 -4.6084,2.3042 0,0 0,0 0,0 0,0 -2.30371,2.30371 -2.30371,2.30371 0,0 -2.30371,2.3042 -2.30371,2.3042 0,0 -1.72754,2.30371 -1.72754,2.30371 0,0 -1.72754,2.87989 -1.72754,2.87989 0,0 -2.30468,6.33496 -2.30468,6.33496 0,0 -1.15137,7.4873 -1.15137,7.4873 0,0 0,0 0,0 0,0 0,6.91211 0,6.91211 0,0 0.57617,6.33496 0.57617,6.33496 0,0 2.30371,4.60743 2.30371,4.60743 0,0 2.87988,4.60839 2.87988,4.60839 0,0 0,0 0,0 0,0 0,0 0,0 z" /><path
         id="path46"
         style="fill:#62a230;fill-opacity:1;fill-rule:nonzero;stroke:none"
         d="m 608.22363,-250.04395 c 0,0 2.87989,-29.94921 2.87989,-29.94921 0,0 0,0 0,0 0,0 1.15234,-6.91211 1.15234,-6.91211 0,0 1.72754,-4.60743 1.72754,-4.60743 0,0 0,0 0,0 0,0 2.30371,-4.03125 2.30371,-4.03125 0,0 3.45605,-2.30371 3.45605,-2.30371 0,0 0,0 0,0 0,0 4.03125,-1.72851 4.03125,-1.72851 0,0 4.03223,-0.57569 4.03223,-0.57569 0,0 0,0 0,0 0,0 2.87988,0 2.87988,0 0,0 2.30371,0.57569 2.30371,0.57569 0,0 1.72754,1.15234 1.72754,1.15234 0,0 1.15235,1.72754 1.15235,1.72754 0,0 0,0 0,0 0,0 1.15136,1.72754 1.15136,1.72754 0,0 0.57618,2.30469 0.57618,2.30469 0,0 0,2.30371 0,2.30371 0,0 0,2.87988 0,2.87988 0,0 -3.45606,37.43652 -3.45606,37.43652 0,0 10.36719,0 10.36719,0 0,0 2.87988,-33.40527 2.87988,-33.40527 0,0 0,0 0,0 0,0 0.57617,-4.03125 0.57617,-4.03125 0,0 1.15235,-3.45605 1.15235,-3.45605 0,0 1.72754,-2.87989 1.72754,-2.87989 0,0 2.30371,-2.30371 2.30371,-2.30371 0,0 0,0 0,0 0,0 2.30371,-1.72754 2.30371,-1.72754 0,0 2.87988,-1.15234 2.87988,-1.15234 0,0 2.87988,-1.15186 2.87988,-1.15186 0,0 2.87989,0 2.87989,0 0,0 0,0 0,0 0,0 3.45508,0.57569 3.45508,0.57569 0,0 2.87988,1.15234 2.87988,1.15234 0,0 0,0 0,0 0,0 1.72851,1.72754 1.72851,1.72754 0,0 1.15137,2.30371 1.15137,2.30371 0,0 0,0 0,0 0,0 0.57617,3.45606 0.57617,3.45606 0,0 0,4.60742 0,4.60742 0,0 -3.45605,36.28515 -3.45605,36.28515 0,0 10.36719,0 10.36719,0 0,0 3.45605,-39.16503 3.45605,-39.16503 0,0 0,0 0,0 0,0 0,-4.60743 0,-4.60743 0,0 -0.57617,-4.03125 -0.57617,-4.03125 0,0 -1.15137,-3.45605 -1.15137,-3.45605 0,0 -1.72851,-2.30371 -1.72851,-2.30371 0,0 0,0 0,0 0,0 -2.30372,-2.3042 -2.30372,-2.3042 0,0 -3.45507,-1.72754 -3.45507,-1.72754 0,0 -3.45606,-0.57617 -3.45606,-0.57617 0,0 -4.60742,-0.57569 -4.60742,-0.57569 0,0 0,0 0,0 0,0 -5.18359,1.15186 -5.18359,1.15186 0,0 -5.1836,1.72754 -5.1836,1.72754 0,0 -5.18359,2.87988 -5.18359,2.87988 0,0 -4.03223,4.60791 -4.03223,4.60791 0,0 0,0 0,0 0,0 -1.15137,-2.3042 -1.15137,-2.3042 0,0 -1.15234,-2.30371 -1.15234,-2.30371 0,0 -1.15137,-1.15185 -1.15137,-1.15185 0,0 -2.30468,-1.72803 -2.30468,-1.72803 0,0 0,0 0,0 0,0 -1.72754,-1.15186 -1.72754,-1.15186 0,0 -2.87989,-0.57568 -2.87989,-0.57568 0,0 -2.87988,-0.57617 -2.87988,-0.57617 0,0 -2.87988,-0.57569 -2.87988,-0.57569 0,0 0,0 0,0 0,0 -6.33496,1.15186 -6.33496,1.15186 0,0 -5.1836,1.72754 -5.1836,1.72754 0,0 0,0 0,0 0,0 -4.60742,2.87988 -4.60742,2.87988 0,0 -3.45605,4.03174 -3.45605,4.03174 0,0 0.57617,-8.06348 0.57617,-8.06348 0,0 -9.21582,0 -9.21582,0 0,0 -5.18359,57.01953 -5.18359,57.01953 0,0 10.36718,0 10.36718,0 0,0 0,0 0,0 0,0 0,0 0,0 z" /><path
         id="path48"
         style="fill:none;stroke:#62a230;stroke-width:1;stroke-linecap:square;stroke-linejoin:miter;stroke-miterlimit:10;stroke-dasharray:none;stroke-opacity:1"
         d="m 608.22363,-250.04395 c 0,0 2.87989,-29.94921 2.87989,-29.94921 0,0 0,0 0,0 0,0 1.15234,-6.91211 1.15234,-6.91211 0,0 1.72754,-4.60743 1.72754,-4.60743 0,0 0,0 0,0 0,0 2.30371,-4.03125 2.30371,-4.03125 0,0 3.45605,-2.30371 3.45605,-2.30371 0,0 0,0 0,0 0,0 4.03125,-1.72851 4.03125,-1.72851 0,0 4.03223,-0.57569 4.03223,-0.57569 0,0 0,0 0,0 0,0 2.87988,0 2.87988,0 0,0 2.30371,0.57569 2.30371,0.57569 0,0 1.72754,1.15234 1.72754,1.15234 0,0 1.15235,1.72754 1.15235,1.72754 0,0 0,0 0,0 0,0 1.15136,1.72754 1.15136,1.72754 0,0 0.57618,2.30469 0.57618,2.30469 0,0 0,2.30371 0,2.30371 0,0 0,2.87988 0,2.87988 0,0 -3.45606,37.43652 -3.45606,37.43652 0,0 10.36719,0 10.36719,0 0,0 2.87988,-33.40527 2.87988,-33.40527 0,0 0,0 0,0 0,0 0.57617,-4.03125 0.57617,-4.03125 0,0 1.15235,-3.45605 1.15235,-3.45605 0,0 1.72754,-2.87989 1.72754,-2.87989 0,0 2.30371,-2.30371 2.30371,-2.30371 0,0 0,0 0,0 0,0 2.30371,-1.72754 2.30371,-1.72754 0,0 2.87988,-1.15234 2.87988,-1.15234 0,0 2.87988,-1.15186 2.87988,-1.15186 0,0 2.87989,0 2.87989,0 0,0 0,0 0,0 0,0 3.45508,0.57569 3.45508,0.57569 0,0 2.87988,1.15234 2.87988,1.15234 0,0 0,0 0,0 0,0 1.72851,1.72754 1.72851,1.72754 0,0 1.15137,2.30371 1.15137,2.30371 0,0 0,0 0,0 0,0 0.57617,3.45606 0.57617,3.45606 0,0 0,4.60742 0,4.60742 0,0 -3.45605,36.28515 -3.45605,36.28515 0,0 10.36719,0 10.36719,0 0,0 3.45605,-39.16503 3.45605,-39.16503 0,0 0,0 0,0 0,0 0,-4.60743 0,-4.60743 0,0 -0.57617,-4.03125 -0.57617,-4.03125 0,0 -1.15137,-3.45605 -1.15137,-3.45605 0,0 -1.72851,-2.30371 -1.72851,-2.30371 0,0 0,0 0,0 0,0 -2.30372,-2.3042 -2.30372,-2.3042 0,0 -3.45507,-1.72754 -3.45507,-1.72754 0,0 -3.45606,-0.57617 -3.45606,-0.57617 0,0 -4.60742,-0.57569 -4.60742,-0.57569 0,0 0,0 0,0 0,0 -5.18359,1.15186 -5.18359,1.15186 0,0 -5.1836,1.72754 -5.1836,1.72754 0,0 -5.18359,2.87988 -5.18359,2.87988 0,0 -4.03223,4.60791 -4.03223,4.60791 0,0 0,0 0,0 0,0 -1.15137,-2.3042 -1.15137,-2.3042 0,0 -1.15234,-2.30371 -1.15234,-2.30371 0,0 -1.15137,-1.15185 -1.15137,-1.15185 0,0 -2.30468,-1.72803 -2.30468,-1.72803 0,0 0,0 0,0 0,0 -1.72754,-1.15186 -1.72754,-1.15186 0,0 -2.87989,-0.57568 -2.87989,-0.57568 0,0 -2.87988,-0.57617 -2.87988,-0.57617 0,0 -2.87988,-0.57569 -2.87988,-0.57569 0,0 0,0 0,0 0,0 -6.33496,1.15186 -6.33496,1.15186 0,0 -5.1836,1.72754 -5.1836,1.72754 0,0 0,0 0,0 0,0 -4.60742,2.87988 -4.60742,2.87988 0,0 -3.45605,4.03174 -3.45605,4.03174 0,0 0.57617,-8.06348 0.57617,-8.06348 0,0 -9.21582,0 -9.21582,0 0,0 -5.18359,57.01953 -5.18359,57.01953 0,0 10.36718,0 10.36718,0 0,0 0,0 0,0 0,0 0,0 0,0 z" /><path
         id="path50"
         style="fill:#e2001a;fill-opacity:1;fill-rule:nonzero;stroke:none"
         d="m 262.65039,-327.79785 c 0,0 0,0 0,0 0,0 10.36719,-2.87988 10.36719,-2.87988 0,0 26.49414,-6.33545 26.49414,-6.33545 0,0 39.16504,-9.21534 39.16504,-9.21534 0,0 22.46191,-4.60742 22.46191,-4.60742 0,0 23.03858,-4.60791 23.03858,-4.60791 0,0 24.18994,-4.60742 24.18994,-4.60742 0,0 24.19043,-3.45557 24.19043,-3.45557 0,0 23.03808,-2.87988 23.03808,-2.87988 0,0 21.88575,-1.72803 21.88575,-1.72803 0,0 20.15918,-0.57568 20.15918,-0.57568 0,0 9.21484,0 9.21484,0 0,0 8.63965,1.15186 8.63965,1.15186 0,0 7.4873,0.57568 7.4873,0.57568 0,0 6.91113,1.72803 6.91113,1.72803 0,0 5.75977,2.30371 5.75977,2.30371 0,0 4.60742,2.30371 4.60742,2.30371 0,0 0,0 0,0 0,0 1.15235,1.15185 1.15235,1.15185 0,0 2.30371,2.87989 2.30371,2.87989 0,0 2.87988,4.03174 2.87988,4.03174 0,0 1.15137,2.87988 1.15137,2.87988 0,0 0.57617,2.87988 0.57617,2.87988 0,0 0.57617,3.45557 0.57617,3.45557 0,0 0,3.45556 0,3.45556 0,0 -0.57617,3.45606 -0.57617,3.45606 0,0 -1.72754,4.03174 -1.72754,4.03174 0,0 -2.30371,4.03173 -2.30371,4.03173 0,0 -2.87988,4.03174 -2.87988,4.03174 0,0 -4.60743,4.60742 -4.60743,4.60742 0,0 -5.75976,4.03174 -5.75976,4.03174 0,0 0,0 0,0 0,0 3.45605,-1.15185 3.45605,-1.15185 0,0 8.0625,-3.45606 8.0625,-3.45606 0,0 11.51953,-5.18359 11.51953,-5.18359 0,0 6.33594,-3.45557 6.33594,-3.45557 0,0 5.75879,-3.45556 5.75879,-3.45556 0,0 5.75977,-4.03174 5.75977,-4.03174 0,0 5.18359,-4.60791 5.18359,-4.60791 0,0 4.03223,-4.60742 4.03223,-4.60742 0,0 2.8789,-5.1836 2.8789,-5.1836 0,0 1.15235,-2.30371 1.15235,-2.30371 0,0 0,-2.87988 0,-2.87988 0,0 0.57617,-2.87988 0.57617,-2.87988 0,0 -0.57617,-2.30372 -0.57617,-2.30372 0,0 -1.15235,-2.87988 -1.15235,-2.87988 0,0 -1.15136,-2.87988 -1.15136,-2.87988 0,0 -2.30371,-2.87988 -2.30371,-2.87988 0,0 -2.30372,-2.8794 -2.30372,-2.8794 0,0 0,0 0,0 0,0 -2.87988,-1.72803 -2.87988,-1.72803 0,0 -3.45605,-2.30371 -3.45605,-2.30371 0,0 -5.1836,-2.30371 -5.1836,-2.30371 0,0 -8.06347,-2.3042 -8.06347,-2.3042 0,0 -9.79102,-1.72754 -9.79102,-1.72754 0,0 -12.6709,-1.72802 -12.6709,-1.72802 0,0 -15.55078,-0.57617 -15.55078,-0.57617 0,0 -18.43066,0.57617 -18.43066,0.57617 0,0 -22.46192,1.72802 -22.46192,1.72802 0,0 -25.34277,3.45557 -25.34277,3.45557 0,0 -29.94922,5.18359 -29.94922,5.18359 0,0 -16.12695,3.45557 -16.12695,3.45557 0,0 -17.27881,4.03174 -17.27881,4.03174 0,0 -18.43067,4.60791 -18.43067,4.60791 0,0 -19.58251,5.75928 -19.58251,5.75928 0,0 -20.73438,5.75976 -20.73438,5.75976 0,0 -21.88623,6.91162 -21.88623,6.91162 0,0 -23.03809,7.48731 -23.03809,7.48731 0,0 -24.76611,8.63916 -24.76611,8.63916 0,0 0,0 0,0 0,0 0,0 0,0 z" /><path
         id="path52"
         style="fill:#e2001a;fill-opacity:1;fill-rule:nonzero;stroke:none"
         d="m 152.06689,-278.26563 c 0,0 0,0 0,0 0,0 -3.45556,2.87989 -3.45556,2.87989 0,0 -3.45606,3.45605 -3.45606,3.45605 0,0 -4.03173,4.03125 -4.03173,4.03125 0,0 -3.45557,5.1836 -3.45557,5.1836 0,0 -2.87988,5.18359 -2.87988,5.18359 0,0 -1.15186,2.87988 -1.15186,2.87988 0,0 -0.57568,2.87989 -0.57568,2.87989 0,0 -0.57617,2.87988 -0.57617,2.87988 0,0 0.57617,3.45508 0.57617,3.45508 0,0 0.57568,2.87988 0.57568,2.87988 0,0 1.72803,2.87988 1.72803,2.87988 0,0 2.30371,2.30371 2.30371,2.30371 0,0 2.87988,2.87989 2.87988,2.87989 0,0 4.03174,2.30371 4.03174,2.30371 0,0 4.60742,2.30371 4.60742,2.30371 0,0 5.75977,2.30469 5.75977,2.30469 0,0 6.91113,1.72753 6.91113,1.72753 0,0 8.06348,1.72754 8.06348,1.72754 0,0 9.21533,1.15235 9.21533,1.15235 0,0 10.94336,1.15136 10.94336,1.15136 0,0 11.51904,0.57618 11.51904,0.57618 0,0 13.24707,0.57617 13.24707,0.57617 0,0 14.97461,0 14.97461,0 0,0 16.12695,-0.57617 16.12695,-0.57617 0,0 17.8545,-1.15137 17.8545,-1.15137 0,0 0,0 0,0 0,0 -8.63916,1.72754 -8.63916,1.72754 0,0 -21.88623,3.45605 -21.88623,3.45605 0,0 -14.39893,1.72754 -14.39893,1.72754 0,0 -15.55078,1.15137 -15.55078,1.15137 0,0 -16.70313,1.15234 -16.70313,1.15234 0,0 -16.12646,0.57617 -16.12646,0.57617 0,0 -15.55078,-0.57617 -15.55078,-0.57617 0,0 -7.4878,-0.57617 -7.4878,-0.57617 0,0 -6.91113,-1.15137 -6.91113,-1.15137 0,0 -6.33545,-1.15234 -6.33545,-1.15234 0,0 -5.75976,-1.72754 -5.75976,-1.72754 0,0 -5.1836,-2.30371 -5.1836,-2.30371 0,0 -4.03174,-2.87988 -4.03174,-2.87988 0,0 -3.45556,-2.87989 -3.45556,-2.87989 0,0 -2.30371,-3.45605 -2.30371,-3.45605 0,0 -1.15186,-4.03125 -1.15186,-4.03125 0,0 -0.57617,-4.60742 -0.57617,-4.60742 0,0 1.15186,-5.1836 1.15186,-5.1836 0,0 2.30371,-6.33593 2.30371,-6.33593 0,0 3.45605,-6.33594 3.45605,-6.33594 0,0 5.18359,-6.91113 5.18359,-6.91113 0,0 0,0 0,0 0,0 2.30372,-2.30371 2.30372,-2.30371 0,0 6.91162,-4.60743 6.91162,-4.60743 0,0 4.03125,-2.87988 4.03125,-2.87988 0,0 4.60791,-2.30371 4.60791,-2.30371 0,0 5.18359,-2.30371 5.18359,-2.30371 0,0 5.18359,-1.15235 5.18359,-1.15235 0,0 0,0 0,0 0,0 0,0 0,0 z" /></g></g></svg>